<mxfile host="65bd71144e">
    <diagram id="NH89rQaxT2tvP0yTE59p" name="Page-1">
        <mxGraphModel dx="1071" dy="556" grid="1" gridSize="10" guides="1" tooltips="1" connect="1" arrows="1" fold="1" page="1" pageScale="1" pageWidth="850" pageHeight="1100" math="0" shadow="0">
            <root>
                <mxCell id="0"/>
                <mxCell id="1" parent="0"/>
                <mxCell id="18" style="edgeStyle=none;html=1;exitX=1;exitY=0.5;exitDx=0;exitDy=0;entryX=0;entryY=0.5;entryDx=0;entryDy=0;strokeColor=#66CC00;strokeWidth=3;fontSize=16;fontColor=#7F00FF;endArrow=none;endFill=0;fillColor=#d5e8d4;" edge="1" parent="1" source="2" target="10">
                    <mxGeometry relative="1" as="geometry"/>
                </mxCell>
                <mxCell id="2" value="" style="whiteSpace=wrap;html=1;fillColor=#f5f5f5;fontColor=#333333;strokeColor=#666666;" vertex="1" parent="1">
                    <mxGeometry x="40" y="40" width="200" height="240" as="geometry"/>
                </mxCell>
                <mxCell id="3" value="&lt;font size=&quot;1&quot; color=&quot;#000000&quot;&gt;&lt;b&gt;&lt;span style=&quot;font-size: 20px;&quot;&gt;Chemical&lt;/span&gt;&lt;/b&gt;&lt;/font&gt;" style="text;align=center;html=1;verticalAlign=middle;whiteSpace=wrap;rounded=0;" vertex="1" parent="1">
                    <mxGeometry x="90" y="40" width="100" height="40" as="geometry"/>
                </mxCell>
                <mxCell id="9" value="&lt;font style=&quot;font-size: 16px;&quot;&gt;+ name: String&lt;br&gt;+ formula: String&lt;br&gt;+ casNo: String&lt;br&gt;+ mW: Number&lt;br&gt;+ genre: []Group&lt;br&gt;+ image: ???&lt;br&gt;&lt;font color=&quot;#7f00ff&quot;&gt;+ url: String&lt;br&gt;&lt;/font&gt;&lt;br&gt;&lt;br&gt;&lt;/font&gt;" style="text;strokeColor=none;align=left;fillColor=none;html=1;verticalAlign=middle;whiteSpace=wrap;rounded=0;fontSize=20;fontColor=#000000;" vertex="1" parent="1">
                    <mxGeometry x="70" y="100" width="150" height="170" as="geometry"/>
                </mxCell>
                <mxCell id="10" value="" style="whiteSpace=wrap;html=1;fillColor=#f5f5f5;fontColor=#333333;strokeColor=#666666;" vertex="1" parent="1">
                    <mxGeometry x="410" y="30" width="220" height="260" as="geometry"/>
                </mxCell>
                <mxCell id="11" value="&lt;font size=&quot;1&quot; color=&quot;#000000&quot;&gt;&lt;b&gt;&lt;span style=&quot;font-size: 20px;&quot;&gt;Product&lt;/span&gt;&lt;/b&gt;&lt;/font&gt;" style="text;align=center;html=1;verticalAlign=middle;whiteSpace=wrap;rounded=0;" vertex="1" parent="1">
                    <mxGeometry x="460" y="30" width="100" height="40" as="geometry"/>
                </mxCell>
                <mxCell id="12" value="&lt;font style=&quot;font-size: 16px;&quot;&gt;+ chemical: Chemical&lt;br&gt;+ productNo: String&lt;br&gt;+ description: String&lt;br&gt;+ numberInStock: Number&lt;br&gt;+ packSize: String&lt;br&gt;+ price: String&lt;br&gt;+ sds: ???&lt;br&gt;&lt;font color=&quot;#7f00ff&quot;&gt;+ url: String&lt;br&gt;&lt;/font&gt;&lt;br&gt;&lt;br&gt;&lt;/font&gt;" style="text;strokeColor=none;align=left;fillColor=none;html=1;verticalAlign=middle;whiteSpace=wrap;rounded=0;fontSize=20;fontColor=#000000;" vertex="1" parent="1">
                    <mxGeometry x="420" y="100" width="190" height="170" as="geometry"/>
                </mxCell>
                <mxCell id="14" value="" style="whiteSpace=wrap;html=1;fillColor=#f5f5f5;fontColor=#333333;strokeColor=#666666;" vertex="1" parent="1">
                    <mxGeometry x="40" y="400" width="200" height="150" as="geometry"/>
                </mxCell>
                <mxCell id="21" style="edgeStyle=none;html=1;exitX=0.5;exitY=0;exitDx=0;exitDy=0;entryX=0.5;entryY=1;entryDx=0;entryDy=0;strokeColor=#66CC00;strokeWidth=3;fontSize=16;fontColor=#7F00FF;endArrow=none;endFill=0;" edge="1" parent="1" source="15" target="2">
                    <mxGeometry relative="1" as="geometry"/>
                </mxCell>
                <mxCell id="15" value="&lt;font color=&quot;#000000&quot;&gt;&lt;span style=&quot;font-size: 20px;&quot;&gt;&lt;b&gt;Group&lt;/b&gt;&lt;/span&gt;&lt;/font&gt;" style="text;align=center;html=1;verticalAlign=middle;whiteSpace=wrap;rounded=0;" vertex="1" parent="1">
                    <mxGeometry x="90" y="400" width="100" height="40" as="geometry"/>
                </mxCell>
                <mxCell id="16" value="&lt;font style=&quot;font-size: 16px;&quot;&gt;+ name: String&lt;br&gt;+ description: String&lt;br&gt;+ wikiUrl: String&lt;br&gt;&lt;font color=&quot;#7f00ff&quot;&gt;+ url: String&lt;br&gt;&lt;/font&gt;&lt;br&gt;&lt;br&gt;&lt;/font&gt;" style="text;strokeColor=none;align=left;fillColor=none;html=1;verticalAlign=middle;whiteSpace=wrap;rounded=0;fontSize=20;fontColor=#000000;" vertex="1" parent="1">
                    <mxGeometry x="65" y="440" width="150" height="130" as="geometry"/>
                </mxCell>
            </root>
        </mxGraphModel>
    </diagram>
</mxfile>